# Blender v2.82 (sub 7) OBJ File: ''
# www.blender.org
mtllib Spike.mtl
o Cube
v 1.000000 0.509438 -1.000000
v 1.000000 0.009438 -1.000000
v 1.000000 0.509438 1.000000
v 1.000000 0.009438 1.000000
v -1.000000 0.509438 -1.000000
v -1.000000 0.009438 -1.000000
v -1.000000 0.509438 1.000000
v -1.000000 0.009438 1.000000
v -1.000000 0.009438 0.000000
v 0.000000 0.009438 -1.000000
v 0.000000 0.509438 1.000000
v 1.000000 0.509438 0.000000
v 0.000000 0.009438 1.000000
v -1.000000 0.509438 0.000000
v 0.000000 0.509438 -1.000000
v 1.000000 0.009438 0.000000
v 0.000000 0.018456 0.000000
v 0.000000 3.044359 0.000000
v -1.000000 0.009438 0.500000
v -0.500000 0.009438 -1.000000
v -0.500000 0.509438 1.000000
v 1.000000 0.509438 0.500000
v 0.500000 0.009438 1.000000
v -1.000000 0.509438 -0.500000
v 0.500000 0.509438 -1.000000
v 1.000000 0.009438 -0.500000
v -1.000000 0.009438 -0.500000
v 0.500000 0.009438 -1.000000
v 0.500000 0.509438 1.000000
v 1.000000 0.509438 -0.500000
v -0.500000 0.009438 1.000000
v -1.000000 0.509438 0.500000
v -0.500000 0.509438 -1.000000
v 1.000000 0.009438 0.500000
v 0.000000 0.018456 0.500000
v 0.000000 0.018456 -0.500000
v -0.500000 0.018456 0.000000
v 0.500000 0.018456 0.000000
v 0.000000 1.776898 0.500000
v 0.000000 1.776898 -0.500000
v 0.500000 1.776898 0.000000
v -0.500000 1.776898 0.000000
v -0.500000 1.143168 -0.500000
v 0.500000 1.143168 -0.500000
v 0.500000 1.143168 0.500000
v 0.500000 0.018456 -0.500000
v -0.500000 0.018456 -0.500000
v -0.500000 0.018456 0.500000
v 0.500000 0.018456 0.500000
v -0.500000 1.143168 0.500000
vt 0.875000 0.687500
vt 0.875000 0.750000
vt 0.812500 0.750000
vt 0.562500 0.937500
vt 0.625000 0.937500
vt 0.625000 1.000000
vt 0.562500 1.000000
vt 0.562500 0.187500
vt 0.625000 0.187500
vt 0.625000 0.250000
vt 0.562500 0.250000
vt 0.312500 0.687500
vt 0.375000 0.687500
vt 0.375000 0.750000
vt 0.312500 0.750000
vt 0.562500 0.687500
vt 0.625000 0.687500
vt 0.625000 0.750000
vt 0.562500 0.750000
vt 0.562500 0.437500
vt 0.625000 0.437500
vt 0.625000 0.500000
vt 0.562500 0.500000
vt 0.562500 0.312500
vt 0.625000 0.312500
vt 0.625000 0.375000
vt 0.562500 0.375000
vt 0.562500 0.562500
vt 0.625000 0.562500
vt 0.625000 0.625000
vt 0.562500 0.625000
vt 0.187500 0.687500
vt 0.250000 0.687500
vt 0.250000 0.750000
vt 0.187500 0.750000
vt 0.187500 0.562500
vt 0.250000 0.562500
vt 0.250000 0.625000
vt 0.187500 0.625000
vt 0.312500 0.562500
vt 0.375000 0.562500
vt 0.375000 0.625000
vt 0.312500 0.625000
vt 0.562500 0.062500
vt 0.625000 0.062500
vt 0.625000 0.125000
vt 0.562500 0.125000
vt 0.562500 0.812500
vt 0.625000 0.812500
vt 0.625000 0.875000
vt 0.562500 0.875000
vt 0.687500 0.687500
vt 0.750000 0.687500
vt 0.750000 0.750000
vt 0.687500 0.750000
vt 0.687500 0.562500
vt 0.750000 0.562500
vt 0.750000 0.625000
vt 0.687500 0.625000
vt 0.812500 0.562500
vt 0.875000 0.562500
vt 0.875000 0.625000
vt 0.812500 0.625000
vt 0.750000 0.500000
vt 0.812500 0.500000
vt 0.875000 0.500000
vt 0.687500 0.500000
vt 0.562500 0.000000
vt 0.625000 0.000000
vt 0.250000 0.500000
vt 0.312500 0.500000
vt 0.375000 0.500000
vt 0.125000 0.562500
vt 0.125000 0.625000
vt 0.125000 0.500000
vt 0.187500 0.500000
vt 0.125000 0.687500
vt 0.125000 0.750000
vt 0.812500 0.687500
vn 0.0000 1.0000 0.0000
vn 0.0000 0.0000 1.0000
vn -1.0000 0.0000 0.0000
vn -0.0090 -0.9999 -0.0090
vn 1.0000 0.0000 0.0000
vn 0.0000 0.0000 -1.0000
vn 0.0000 -0.9998 -0.0180
vn 0.0000 -1.0000 0.0000
vn -0.0180 -0.9998 0.0000
vn 0.2830 0.4465 0.8489
vn 0.6628 0.3486 -0.6628
vn -0.8489 0.4465 -0.2830
vn -0.6628 0.3486 -0.6628
vn -0.2830 0.4465 -0.8489
vn 0.8489 0.4465 -0.2830
vn 0.6175 0.4872 -0.6175
vn 0.2830 0.4465 -0.8489
vn 0.8489 0.4465 0.2830
vn 0.6628 0.3486 0.6628
vn 0.0000 -0.9998 0.0180
vn -0.0090 -0.9999 0.0090
vn 0.0180 -0.9998 0.0000
vn 0.0090 -0.9999 0.0090
vn 0.0090 -0.9999 -0.0090
vn -0.2830 0.4465 0.8489
vn -0.6628 0.3486 0.6628
vn -0.8489 0.4465 0.2830
vn 0.6175 0.4872 0.6175
vn -0.6175 0.4872 0.6175
vn -0.6175 0.4872 -0.6175
usemtl Material
s off
f 32/1/1 7/2/1 21/3/1
f 31/4/2 21/5/2 7/6/2 8/7/2
f 27/8/3 24/9/3 5/10/3 6/11/3
f 49/12/4 34/13/4 4/14/4 23/15/4
f 34/16/5 22/17/5 3/18/5 4/19/5
f 28/20/6 25/21/6 1/22/6 2/23/6
f 20/24/6 33/25/6 15/26/6 10/27/6
f 26/28/5 30/29/5 12/30/5 16/31/5
f 48/32/7 35/33/7 13/34/7 31/35/7
f 47/36/8 36/37/8 17/38/8 37/39/8
f 46/40/9 26/41/9 16/42/9 38/43/9
f 19/44/3 32/45/3 14/46/3 9/47/3
f 23/48/2 29/49/2 11/50/2 13/51/2
f 45/52/10 39/53/10 11/54/10 29/55/10
f 44/56/11 40/57/11 18/58/11 41/59/11
f 43/60/12 24/61/12 14/62/12 42/63/12
f 40/57/13 43/60/13 42/63/13 18/58/13
f 15/64/14 33/65/14 43/60/14 40/57/14
f 33/65/1 5/66/1 24/61/1
f 30/29/15 44/56/15 41/59/15 12/30/15
f 25/67/16 44/56/16 30/29/16
f 25/67/17 15/64/17 40/57/17 44/56/17
f 12/30/18 41/59/18 45/52/18 22/17/18
f 41/59/19 18/58/19 39/53/19 45/52/19
f 4/19/2 3/18/2 29/49/2 23/48/2
f 8/68/3 7/69/3 32/45/3 19/44/3
f 36/37/8 46/40/8 38/43/8 17/38/8
f 10/70/20 28/71/20 46/40/20 36/37/20
f 28/71/21 2/72/21 26/41/21 46/40/21
f 27/73/22 47/36/22 37/39/22 9/74/22
f 6/75/23 20/76/23 47/36/23 27/73/23
f 20/76/20 10/70/20 36/37/20 47/36/20
f 19/77/24 48/32/24 31/35/24 8/78/24
f 9/74/22 37/39/22 48/32/22 19/77/22
f 37/39/8 17/38/8 35/33/8 48/32/8
f 2/23/5 1/22/5 30/29/5 26/28/5
f 6/11/6 5/10/6 33/25/6 20/24/6
f 10/27/6 15/26/6 25/21/6 28/20/6
f 16/31/5 12/30/5 22/17/5 34/16/5
f 35/33/7 49/12/7 23/15/7 13/34/7
f 17/38/8 38/43/8 49/12/8 35/33/8
f 38/43/9 16/42/9 34/13/9 49/12/9
f 9/47/3 14/46/3 24/9/3 27/8/3
f 13/51/2 11/50/2 21/5/2 31/4/2
f 39/53/25 50/79/25 21/3/25 11/54/25
f 18/58/26 42/63/26 50/79/26 39/53/26
f 42/63/27 14/62/27 32/1/27 50/79/27
f 22/17/28 45/52/28 29/55/28
f 50/79/29 32/1/29 21/3/29
f 3/18/1 22/17/1 29/55/1
f 1/22/1 25/67/1 30/29/1
f 43/60/30 33/65/30 24/61/30
